<svg width="25" height="16" viewBox="0 0 25 16" fill="none" xmlns="http://www.w3.org/2000/svg">
<path d="M7.72437 0.794952C8.42778 0.794952 9.06111 0.853195 9.63993 0.977278C10.2162 1.0963 10.7093 1.29382 11.1246 1.5673C11.5347 1.84079 11.854 2.20291 12.0824 2.66126C12.3056 3.11201 12.4172 3.67671 12.4172 4.3427C12.4172 5.06441 12.2485 5.6671 11.9137 6.14823C11.5763 6.62937 11.0779 7.02441 10.4134 7.33082C11.3167 7.58405 11.9864 8.02973 12.4302 8.66534C12.8767 9.30348 13.0947 10.0682 13.0947 10.9647C13.0947 11.6914 12.9519 12.3169 12.6664 12.8436C12.3783 13.3754 11.9864 13.8084 11.5036 14.1402C11.0182 14.477 10.4575 14.7226 9.832 14.8821C9.21425 15.0417 8.57054 15.1227 7.91126 15.1227H0.791504V0.792419H7.71658L7.72437 0.794952ZM7.30648 6.58379C7.88011 6.58379 8.3551 6.45211 8.72887 6.18115C9.10004 5.91526 9.28174 5.47971 9.28174 4.87702C9.28174 4.54276 9.22204 4.26927 9.10264 4.05402C8.97805 3.83878 8.81193 3.67165 8.60428 3.55516C8.39663 3.43361 8.16303 3.35004 7.89309 3.30446C7.62574 3.25382 7.34801 3.23356 7.06249 3.23356H4.03601V6.58126H7.30907L7.30648 6.58379ZM7.48558 12.6841C7.80483 12.6841 8.10852 12.6562 8.39144 12.5929C8.67955 12.5322 8.93652 12.4334 9.15455 12.2891C9.36999 12.1498 9.54908 11.9599 9.67886 11.7168C9.80864 11.4762 9.87094 11.1647 9.87094 10.7874C9.87094 10.048 9.6581 9.52379 9.23501 9.20472C8.81193 8.89071 8.24609 8.73371 7.54787 8.73371H4.03082V12.679H7.48298L7.48558 12.6841Z" fill="white"/>
<path d="M17.7098 12.636C18.1459 13.0538 18.7792 13.2614 19.5994 13.2614C20.1886 13.2614 20.6973 13.1171 21.1256 12.8259C21.5487 12.5372 21.8057 12.2283 21.9069 11.9067H24.4791C24.0664 13.1551 23.4383 14.0465 22.5817 14.5833C21.7356 15.1227 20.7051 15.3911 19.5034 15.3911C18.665 15.3911 17.9122 15.2594 17.2348 14.9986C16.5573 14.7352 15.9941 14.3655 15.5165 13.8844C15.0519 13.4007 14.6937 12.8284 14.4367 12.1548C14.1824 11.4863 14.0552 10.7443 14.0552 9.94413C14.0552 9.14392 14.1876 8.44247 14.4471 7.77395C14.7119 7.10289 15.0778 6.52299 15.5606 6.03426C16.0434 5.54552 16.617 5.16061 17.2841 4.877C17.9512 4.59591 18.6883 4.4541 19.5034 4.4541C20.404 4.4541 21.1905 4.62377 21.868 4.96816C22.5402 5.30749 23.0931 5.76836 23.5265 6.3432C23.96 6.91803 24.2689 7.5739 24.461 8.31333C24.653 9.04769 24.7179 9.81751 24.6634 10.6228H16.9882C16.9882 11.4432 17.2737 12.2207 17.7124 12.636H17.7098ZM21.0659 7.18392C20.7181 6.80914 20.1315 6.60656 19.4125 6.60656C18.9453 6.60656 18.5586 6.68252 18.2497 6.83953C17.9486 6.994 17.6994 7.18645 17.5099 7.41183C17.3204 7.64227 17.1933 7.88283 17.118 8.14366C17.0427 8.39436 16.9986 8.6248 16.9856 8.82738H21.7382C21.6681 8.10061 21.4137 7.56377 21.0659 7.18645V7.18392Z" fill="white"/>
<path d="M22.3428 1.7547H16.3884V3.17026H22.3428V1.7547Z" fill="white"/>
</svg>
