<svg width="23" height="22" viewBox="0 0 23 22" fill="none" xmlns="http://www.w3.org/2000/svg">
<path d="M11.5261 2.27049C14.4721 2.27049 14.8199 2.28062 15.9828 2.3338C17.0574 2.38191 17.6414 2.55664 18.0307 2.70351C18.5446 2.8985 18.9132 3.13147 19.3 3.50879C19.6867 3.8861 19.9255 4.24315 20.1254 4.74708C20.2759 5.12692 20.455 5.69669 20.5043 6.74507C20.5562 7.87954 20.5692 8.2214 20.5692 11.093C20.5692 13.9647 20.5588 14.3065 20.5043 15.441C20.455 16.4894 20.2759 17.0591 20.1254 17.439C19.9255 17.9404 19.6867 18.2999 19.3 18.6773C18.9132 19.0546 18.5472 19.2875 18.0307 19.4825C17.6414 19.6294 17.0574 19.8041 15.9828 19.8522C14.8199 19.9029 14.4721 19.9156 11.5261 19.9156C8.5801 19.9156 8.23229 19.9054 7.06946 19.8522C5.99488 19.8041 5.41086 19.6294 5.02152 19.4825C4.50759 19.2875 4.13902 19.0546 3.75227 18.6773C3.36552 18.2999 3.12673 17.9429 2.92687 17.439C2.77632 17.0591 2.59723 16.4894 2.54791 15.441C2.496 14.3065 2.48302 13.9647 2.48302 11.093C2.48302 8.2214 2.4934 7.87954 2.54791 6.74507C2.59723 5.69669 2.77632 5.12692 2.92687 4.74708C3.12673 4.24568 3.36552 3.8861 3.75227 3.50879C4.13902 3.13147 4.505 2.8985 5.02152 2.70351C5.41086 2.55664 5.99488 2.38191 7.06946 2.3338C8.23229 2.28315 8.5827 2.27049 11.5261 2.27049ZM11.5261 0.33075C8.53078 0.33075 8.15442 0.343411 6.97861 0.396589C5.8054 0.449768 5.00335 0.629561 4.29994 0.897985C3.57577 1.17401 2.96061 1.54119 2.34545 2.13881C1.73289 2.73643 1.35393 3.33659 1.0736 4.04563C0.801065 4.72935 0.614181 5.51184 0.559673 6.65897C0.505166 7.8061 0.492188 8.17328 0.492188 11.0956C0.492188 14.0178 0.505166 14.385 0.559673 15.5321C0.614181 16.6767 0.798469 17.4592 1.0736 18.1455C1.35652 18.852 1.73289 19.4521 2.34545 20.0523C2.95801 20.6499 3.57317 21.0196 4.29994 21.2931C5.00076 21.559 5.8028 21.7413 6.97861 21.7945C8.15442 21.8477 8.53078 21.8604 11.5261 21.8604C14.5214 21.8604 14.8978 21.8477 16.0736 21.7945C17.2468 21.7413 18.0489 21.5616 18.7523 21.2931C19.4765 21.0171 20.0916 20.6499 20.7068 20.0523C21.3193 19.4547 21.6983 18.8545 21.9786 18.1455C22.2512 17.4618 22.438 16.6793 22.4926 15.5321C22.5471 14.385 22.56 14.0178 22.56 11.0956C22.56 8.17328 22.5471 7.8061 22.4926 6.65897C22.438 5.51437 22.2538 4.73189 21.9786 4.04563C21.6957 3.33912 21.3193 2.73897 20.7068 2.13881C20.0942 1.54119 19.4791 1.17147 18.7523 0.897985C18.0515 0.632093 17.2494 0.449768 16.0736 0.396589C14.8978 0.343411 14.5214 0.33075 11.5261 0.33075Z" fill="white"/>
<path d="M11.5262 5.56757C8.39846 5.56757 5.86255 8.04162 5.86255 11.093C5.86255 14.1445 8.39846 16.6185 11.5262 16.6185C14.6539 16.6185 17.1898 14.1445 17.1898 11.093C17.1898 8.04162 14.6539 5.56757 11.5262 5.56757ZM11.5262 14.6813C9.4964 14.6813 7.84819 13.0758 7.84819 11.093C7.84819 9.11025 9.4938 7.50478 11.5262 7.50478C13.5585 7.50478 15.2041 9.11025 15.2041 11.093C15.2041 13.0758 13.5585 14.6813 11.5262 14.6813Z" fill="white"/>
<path d="M17.4156 6.63873C18.1467 6.63873 18.7393 6.06052 18.7393 5.34726C18.7393 4.634 18.1467 4.05579 17.4156 4.05579C16.6845 4.05579 16.0918 4.634 16.0918 5.34726C16.0918 6.06052 16.6845 6.63873 17.4156 6.63873Z" fill="white"/>
</svg>
