<svg width="22" height="21" viewBox="0 0 22 21" fill="none" xmlns="http://www.w3.org/2000/svg">
<path d="M11.8291 8.76079C12.1172 8.44425 12.3534 8.12518 12.6493 7.85422C13.5578 7.01857 14.6324 6.5982 15.8886 6.60833C16.5791 6.6134 17.2591 6.66151 17.9236 6.8489C19.4446 7.27686 20.3271 8.29991 20.7502 9.74838C21.0669 10.8347 21.124 11.9515 21.1266 13.0708C21.1318 15.4309 21.1188 17.7935 21.1266 20.1536C21.1266 20.3739 21.0643 20.4322 20.841 20.4322C19.5952 20.422 18.3467 20.422 17.1008 20.4322C16.8802 20.4322 16.8334 20.3688 16.8334 20.1663C16.8412 17.9201 16.8412 15.674 16.8334 13.4253C16.8334 12.8631 16.7945 12.2984 16.6336 11.7514C16.3351 10.7436 15.5953 10.2295 14.513 10.2852C13.0335 10.3612 12.2652 11.0753 12.0783 12.5415C12.0342 12.891 12.0108 13.243 12.0134 13.5949C12.0134 15.7803 12.0134 17.9657 12.0186 20.1511C12.0186 20.3688 11.9641 20.4322 11.7357 20.4322C10.4794 20.422 9.22311 20.422 7.96684 20.4322C7.76438 20.4322 7.70728 20.3815 7.70728 20.1815C7.71247 15.8563 7.71247 11.5286 7.70728 7.20342C7.70728 6.98818 7.77995 6.94006 7.9876 6.94006C9.17898 6.94766 10.373 6.95019 11.5643 6.94006C11.785 6.94006 11.8395 7.00844 11.8369 7.21102C11.8239 7.72761 11.8317 8.2442 11.8317 8.76332L11.8291 8.76079Z" fill="#FEFEFE"/>
<path d="M4.99727 13.7038C4.99727 15.8436 4.99468 17.9834 5.00247 20.1232C5.00247 20.3612 4.94277 20.4321 4.69099 20.4296C3.4451 20.4169 2.19921 20.4195 0.950723 20.4296C0.750861 20.4296 0.691162 20.3815 0.691162 20.1814C0.696353 15.8487 0.696353 11.5159 0.691162 7.1806C0.691162 7.00081 0.735287 6.9375 0.929958 6.9375C2.19402 6.9451 3.45808 6.94763 4.72214 6.9375C4.96613 6.9375 4.99727 7.02613 4.99727 7.23125C4.99208 9.38877 4.99468 11.5463 4.99468 13.7038H4.99727Z" fill="#FEFEFE"/>
<path d="M5.34256 2.64527C5.34256 3.98993 4.22645 5.08388 2.85078 5.08388C1.49327 5.08388 0.366781 3.98993 0.36159 2.66553C0.356399 1.32848 1.48289 0.226929 2.85597 0.226929C4.21866 0.226929 5.33996 1.31835 5.34256 2.64274V2.64527Z" fill="#FEFEFE"/>
</svg>
