<svg width="25" height="22" viewBox="0 0 25 22" fill="none" xmlns="http://www.w3.org/2000/svg">
<path d="M24.198 11.093C24.198 9.71544 23.0533 8.60123 21.6439 8.60123C20.9561 8.60123 20.3305 8.86965 19.8711 9.30015C18.1243 8.06945 15.7181 7.27684 13.0369 7.18568L14.1997 1.84252L18.0023 2.63007C18.049 3.57209 18.8407 4.32671 19.8192 4.32671C20.7977 4.32671 21.6439 3.52904 21.6439 2.5465C21.6439 1.56397 20.8263 0.766296 19.8192 0.766296C19.1028 0.766296 18.4876 1.174 18.1892 1.75896L13.9427 0.877718C13.8233 0.852395 13.7013 0.877718 13.6001 0.941025C13.4989 1.00433 13.4262 1.10562 13.4029 1.22211L12.1025 7.18314C9.38226 7.25658 6.9372 8.05172 5.16959 9.29508C4.71016 8.86459 4.08981 8.60123 3.40198 8.60123C1.98997 8.60123 0.8479 9.71798 0.8479 11.093C0.8479 12.1059 1.46825 12.977 2.35854 13.367C2.31961 13.6152 2.29884 13.8659 2.29884 14.1216C2.29884 17.9555 6.8749 21.0652 12.5203 21.0652C18.1658 21.0652 22.7418 17.9555 22.7418 14.1216C22.7418 13.8684 22.7211 13.6177 22.6821 13.3721C23.5776 12.9846 24.2032 12.111 24.2032 11.093H24.198ZM6.68023 12.8732C6.68023 11.8907 7.50044 11.093 8.50494 11.093C9.50944 11.093 10.3297 11.8907 10.3297 12.8732C10.3297 13.8558 9.51204 14.6534 8.50494 14.6534C7.49785 14.6534 6.68023 13.8558 6.68023 12.8732ZM16.8576 17.5782C15.6117 18.7912 13.2264 18.8849 12.5229 18.8849C11.8195 18.8849 9.43417 18.7912 8.19087 17.5757C8.00659 17.3959 8.00659 17.1022 8.19087 16.9224C8.37516 16.7426 8.67625 16.7426 8.86054 16.9224C9.64441 17.6871 11.3264 17.9606 12.5255 17.9606C13.7247 17.9606 15.4041 17.6897 16.1905 16.9224C16.3748 16.7426 16.6759 16.7426 16.8602 16.9224C17.0445 17.1022 17.0445 17.3959 16.8602 17.5757L16.8576 17.5782ZM16.5358 14.6534C15.5287 14.6534 14.711 13.8558 14.711 12.8732C14.711 11.8907 15.5287 11.093 16.5358 11.093C17.5428 11.093 18.3605 11.8932 18.3605 12.8732C18.3605 13.8532 17.5428 14.6534 16.5358 14.6534Z" fill="white"/>
</svg>
