<svg width="46" height="48" viewBox="0 0 46 48" fill="none" xmlns="http://www.w3.org/2000/svg">
<path d="M45.7739 22.8858C45.7739 35.5248 35.5271 45.7716 22.8881 45.7716C10.2491 45.7716 0 35.5271 0 22.8858C0 10.2445 10.2468 0 22.8858 0C35.5248 0 45.7716 10.2468 45.7716 22.8858" fill="#F1522F"/>
<path d="M8.84904 28.5052C8.54223 28.5052 8.38768 28.6136 8.38768 28.8282C8.38768 28.9274 8.42228 28.9966 8.49379 29.0381C8.5653 29.0796 8.72447 29.1211 8.97591 29.165C9.22735 29.2088 9.40498 29.2711 9.50878 29.3495C9.61259 29.4279 9.66565 29.5756 9.66565 29.7947C9.66565 30.0139 9.59644 30.1707 9.45573 30.2722C9.31501 30.3737 9.11201 30.4245 8.84442 30.4245C8.66911 30.4245 8.4638 30.4037 8.2262 30.3645L8.09932 30.3437L8.11547 30.0692C8.43612 30.1177 8.68064 30.1407 8.84442 30.1407C9.00821 30.1407 9.13277 30.1154 9.21812 30.0623C9.30348 30.0093 9.34731 29.9216 9.34731 29.7993C9.34731 29.6771 9.3104 29.594 9.23658 29.5502C9.16276 29.5064 9.00129 29.4648 8.75446 29.4256C8.50532 29.3864 8.33 29.3287 8.2262 29.2526C8.12239 29.1765 8.06934 29.0358 8.06934 28.8282C8.06934 28.6206 8.14085 28.4706 8.28848 28.3714C8.43381 28.2722 8.61605 28.2238 8.83289 28.2238C9.0059 28.2238 9.22043 28.2445 9.4811 28.2838L9.59875 28.3045L9.58952 28.5744C9.27579 28.5283 9.02897 28.5075 8.84904 28.5075" fill="#13110C"/>
<path d="M10.9457 28.2215C11.0379 28.2215 11.1971 28.2376 11.4209 28.2722L11.5224 28.2861L11.5108 28.5444C11.2848 28.519 11.1187 28.5075 11.0103 28.5075C10.7704 28.5075 10.6066 28.5652 10.5212 28.6782C10.4359 28.7936 10.392 29.0035 10.392 29.3126C10.392 29.6217 10.4336 29.8362 10.512 29.9585C10.5927 30.0808 10.7588 30.1407 11.0149 30.1407L11.5155 30.1038L11.5293 30.3668C11.2663 30.406 11.0702 30.4268 10.9411 30.4268C10.6112 30.4268 10.3828 30.3414 10.2582 30.173C10.1337 30.0046 10.0691 29.7186 10.0691 29.3149C10.0691 28.9112 10.136 28.6298 10.2721 28.4683C10.4082 28.3068 10.6343 28.2238 10.9503 28.2238" fill="#13110C"/>
<path d="M12.3183 30.3806H12V27.3403H12.3183V28.3829C12.5444 28.2745 12.7612 28.2215 12.9712 28.2215C13.2526 28.2215 13.4441 28.2976 13.5409 28.4498C13.6378 28.6021 13.6863 28.8743 13.6863 29.2618V30.3806H13.3679V29.2711C13.3679 28.9781 13.3403 28.7774 13.2803 28.669C13.2226 28.5606 13.1003 28.5052 12.9135 28.5052C12.7266 28.5052 12.5629 28.5375 12.3968 28.6021L12.316 28.6321V30.3806H12.3183Z" fill="#13110C"/>
<path d="M14.1799 29.3172C14.1799 28.9297 14.2491 28.6505 14.3875 28.4798C14.526 28.3068 14.7589 28.2215 15.0888 28.2215C15.4187 28.2215 15.6494 28.3068 15.7878 28.4798C15.9239 28.6528 15.9931 28.932 15.9931 29.3172C15.9931 29.7024 15.9285 29.9862 15.7993 30.1592C15.6701 30.3345 15.4325 30.4222 15.0888 30.4222C14.7451 30.4222 14.5075 30.3345 14.3783 30.1592C14.2491 29.9839 14.1822 29.7024 14.1822 29.3172M14.5075 29.3103C14.5075 29.6194 14.5444 29.8362 14.6205 29.9608C14.6943 30.0854 14.8512 30.1477 15.0911 30.1477C15.331 30.1477 15.4856 30.0854 15.5594 29.9631C15.6332 29.8408 15.6701 29.624 15.6701 29.3126C15.6701 29.0012 15.6286 28.7889 15.5479 28.6713C15.4671 28.5536 15.3149 28.496 15.0934 28.496C14.872 28.496 14.7197 28.556 14.6367 28.6713C14.5536 28.7889 14.5121 29.0012 14.5121 29.3103" fill="#13110C"/>
<path d="M16.415 29.3172C16.415 28.9297 16.4842 28.6505 16.6227 28.4798C16.7611 28.3068 16.994 28.2215 17.3239 28.2215C17.6538 28.2215 17.8845 28.3068 18.0229 28.4798C18.159 28.6528 18.2282 28.932 18.2282 29.3172C18.2282 29.7024 18.1636 29.9862 18.0344 30.1592C17.9052 30.3345 17.6676 30.4222 17.3239 30.4222C16.9802 30.4222 16.7426 30.3345 16.6134 30.1592C16.4842 29.9839 16.4173 29.7024 16.4173 29.3172M16.7426 29.3103C16.7426 29.6194 16.7795 29.8362 16.8556 29.9608C16.9295 30.0854 17.0863 30.1477 17.3262 30.1477C17.5661 30.1477 17.7207 30.0854 17.7945 29.9631C17.8683 29.8408 17.9052 29.624 17.9052 29.3126C17.9052 29.0012 17.8637 28.7889 17.783 28.6713C17.7022 28.5536 17.55 28.496 17.3285 28.496C17.1071 28.496 16.9548 28.556 16.8718 28.6713C16.7887 28.7889 16.7472 29.0012 16.7472 29.3103" fill="#13110C"/>
<path d="M19.0888 27.3403H18.7705V30.3806H19.0888V27.3403Z" fill="#13110C"/>
<path d="M8.05542 15.6955H11.3195C12.6229 15.6955 13.9447 16.203 13.9447 18.1569C13.9447 19.8247 13.0012 20.0046 13.0012 20.0046C13.0012 20.0046 14.1592 20.1015 14.1592 21.8639C14.1592 23.4879 13.2457 24.2999 11.421 24.2999H8.05542V15.6955ZM11.2942 16.9665H9.44873V19.3679H11.2942C12.1154 19.3679 12.526 18.9712 12.526 18.1545C12.526 17.3379 12.15 16.9665 11.2942 16.9665ZM11.3195 20.6367H9.44873V23.0934H11.3195C12.0531 23.0934 12.7267 22.8858 12.7267 21.8501C12.7267 20.7428 12.1315 20.6367 11.3195 20.6367Z" fill="#15130F"/>
<path d="M38.3047 36.8466L25.7603 24.2999L24.1201 23.534V44.6874L25.7603 43.8178L28.5469 41.0311L29.2366 40.323L29.9425 41.0311L31.3381 43.8224L32.7291 46.6067L34.1247 47.4141L35.5157 46.6367L36.2724 45.1488L35.5157 43.8201L34.1247 41.0288L33.1697 39.0496H39.2297L38.3047 36.8466Z" fill="white"/>
<path d="M32.729 43.8177H31.3357V46.6044H32.729V43.8177Z" fill="#15130F"/>
<path d="M27.1533 24.2999H25.76V25.6932H27.1533V24.2999Z" fill="#15130F"/>
<path d="M24.3644 24.2999H25.7577V22.9066H22.9688V45.2157C23.9514 45.2157 25.7577 45.2157 25.7577 45.2157V43.8178H24.3621" fill="#15130F"/>
<path d="M28.5469 25.6955H27.1536V27.0888H28.5469V25.6955Z" fill="#15130F"/>
<path d="M29.9402 27.0888H28.5469V28.4821H29.9402V27.0888Z" fill="#15130F"/>
<path d="M31.3357 28.4821H29.9424V29.8754H31.3357V28.4821Z" fill="#15130F"/>
<path d="M32.729 29.8777H31.3357V31.2711H32.729V29.8777Z" fill="#15130F"/>
<path d="M34.1223 31.2711H32.729V32.6644H34.1223V31.2711Z" fill="#15130F"/>
<path d="M35.5154 32.6644H34.1221V34.0577H35.5154V32.6644Z" fill="#15130F"/>
<path d="M36.9111 34.06H35.5178V35.4533H36.9111V34.06Z" fill="#15130F"/>
<path d="M38.3047 35.4533H36.9114V36.8466H38.3047V35.4533Z" fill="#15130F"/>
<path d="M38.3046 36.8466V38.2399H32.729V41.0311H34.1246V39.6355H39.7002V36.8466H38.3046Z" fill="#15130F"/>
<path d="M29.9424 39.6355H28.5491V41.0288H29.9424V39.6355Z" fill="#15130F"/>
<path d="M35.5178 41.0288H34.1245V43.8178H35.5178V41.0288Z" fill="#15130F"/>
<path d="M31.3357 41.0312H29.9424V43.8201H31.3357V41.0312Z" fill="#15130F"/>
<path d="M35.5179 46.6067H32.729V48H35.5179V46.6067Z" fill="#15130F"/>
<path d="M36.9111 43.8177H35.5178V46.6067H36.9111V43.8177Z" fill="#15130F"/>
<path d="M28.5469 41.0312H27.1536V42.4245H28.5469V41.0312Z" fill="#15130F"/>
<path d="M27.1533 42.4244H25.76V43.8177H27.1533V42.4244Z" fill="#15130F"/>
<path d="M25.76 21.271V24.2999H24.3667V15.6955H27.6308C29.5732 15.6955 30.5443 16.6113 30.5443 18.436C30.5443 19.6586 30.076 20.4867 29.1372 20.9227L30.5559 24.2999H29.0241L27.7808 21.271H25.76ZM29.1141 18.4475C29.1141 17.4187 28.6204 16.9665 27.6308 16.9665H25.76V20.0023L27.6078 20.0069C28.6089 20.0069 29.1118 19.4971 29.1118 18.4475" fill="#15130F"/>
<path d="M31.4624 16.9665V15.6955H37.7415V16.9665H35.3171V24.2999H33.9099V16.9665H31.4624Z" fill="#15130F"/>
<path d="M15.3955 24.2999L17.5801 15.6955H20.2352L22.4313 24.2999H21.0241L20.5581 22.4521H17.2548L16.7911 24.2999H15.3978H15.3955ZM18.6596 16.8627L17.5754 21.2226H20.2398L19.1671 16.8627H18.6596Z" fill="#15130F"/>
<path d="M17.4855 23.9515H14.8604V24.2999H17.4855V23.9515Z" fill="#15130F"/>
<path d="M22.9667 23.9515H20.3416V24.2999H22.9667V23.9515Z" fill="#15130F"/>
<path d="M19.0866 14.466H18.7383V23.684H19.0866V14.466Z" fill="#15130F"/>
</svg>
